<?xml version="1.0" standalone="no"?>
<!DOCTYPE svg PUBLIC "-//W3C//DTD SVG 20010904//EN"
 "http://www.w3.org/TR/2001/REC-SVG-20010904/DTD/svg10.dtd">
<svg version="1.0" xmlns="http://www.w3.org/2000/svg"
 width="48.000000pt" height="48.000000pt" viewBox="0 0 48.000000 48.000000"
 preserveAspectRatio="xMidYMid meet">

<g transform="translate(0.000000,48.000000) scale(0.100000,-0.100000)"
fill="#000000" stroke="none">
<path d="M0 240 l0 -240 240 0 240 0 0 240 0 240 -240 0 -240 0 0 -240z m150
126 c0 -21 -27 -38 -50 -31 -24 8 -26 40 -3 54 21 11 53 -3 53 -23z m238 -102
c19 -22 22 -36 22 -105 l0 -79 -30 0 c-30 0 -30 0 -30 58 0 31 -3 67 -6 79 -8
27 -36 38 -64 23 -17 -9 -20 -20 -20 -85 l0 -75 -35 0 -35 0 0 105 0 105 35 0
c26 0 35 -4 35 -17 0 -14 2 -15 18 -1 38 34 74 31 110 -8z m-238 -79 l0 -105
-35 0 -35 0 0 105 0 105 35 0 35 0 0 -105z"/>
</g>
</svg>
